<mxfile host="app.diagrams.net" modified="2024-05-01T19:47:38.880Z" agent="Mozilla/5.0 (Macintosh; Intel Mac OS X 10.15; rv:109.0) Gecko/20100101 Firefox/115.0" version="24.3.0" etag="zZLRFAmLp9CvLxkwD_jv" type="github">
  <diagram name="Page-1" id="v0yi8HXEAamx-xVk284D">
    <mxGraphModel>
      <root>
        <mxCell id="0" />
        <mxCell id="1" parent="0" />
      </root>
    </mxGraphModel>
  </diagram>
</mxfile>
